# Made using Asset Forge (www.assetforge.io) version 1.3 

mtllib woodenlamp.mtl 

g lanternStanding_0

v 0.3194266 0.7816063 -0.05475
v 0.3194266 0.7451063 -0.05475
v 0.3194266 0.7816063 0.05475
v 0.3194266 0.7451063 0.05475
v 0.1741819 0.7816063 -0.0291071
v 0.1741819 0.8108063 -0.0291071
v 0.1741819 0.7816063 0.0291071
v 0.1741819 0.8108063 0.0291071
v 0.2245968 0.7451063 0.1095
v 0.1297671 0.7451063 0.05475
v 0.2245968 0.7816063 0.1095
v 0.1297671 0.7816063 0.05475
v 0.2750118 0.8108063 -0.0291071
v 0.2750118 0.7816063 -0.0291071
v 0.2750118 0.8108063 0.0291071
v 0.2750118 0.7816063 0.0291071
v 0.2245968 0.7816063 -0.0582142
v 0.2245968 0.8108063 -0.0582142
v 0.3194266 0.5261063 -0.05475
v 0.3194266 0.4896063 -0.05475
v 0.3194266 0.5261063 0.05475
v 0.3194266 0.4896063 0.05475
v 0.1297671 0.4896063 -0.05475
v 0.2245968 0.4896063 -0.1095
v 0.1297671 0.5261063 -0.05475
v 0.2245968 0.5261063 -0.1095
v 0.1297671 0.4896063 0.05475
v 0.1297671 0.5261063 0.05475
v 0.2966507 0.5261063 -0.04160034
v 0.2245968 0.5261063 -0.08320068
v 0.1525429 0.5261063 -0.04160034
v 0.1525429 0.5261063 0.04160034
v 0.2966507 0.5261063 0.04160034
v 0.2245968 0.5261063 0.1095
v 0.2245968 0.5261063 0.08320068
v 0.2245968 0.7451063 -0.1095
v 0.2245968 0.7816063 -0.1095
v 0.2245968 0.4896063 0.1095
v 0.2245968 0.7816063 0.0582142
v 0.2245968 0.8108063 0.0582142
v 0.1297671 0.7816063 -0.05475
v 0.1836904 0.8108063 0.03459685
v 0.1297671 0.7451063 -0.05475
v 0.2966507 0.7451063 0.04160034
v 0.2245968 0.7451063 0.08320068
v 0.1525429 0.7451063 0.04160034
v 0.1525429 0.7451063 -0.04160034
v 0.2966507 0.7451063 -0.04160034
v 0.2245968 0.7451063 -0.08320068
v 0.1836904 0.8108063 -0.03459685
v 0.2345968 0.8108063 0.03459685
v 0.1945968 0.8108063 0.03459685
v 0.2345968 0.86 0.03459685
v 0.1945968 0.8799999 0.03459685
v 0.2145969 0.8799999 0.03459685
v 0.2145969 0.8799999 -0.03459685
v 0.1945968 0.8799999 -0.03459685
v 0.1945968 0.8108063 -0.03459685
v 0.2345968 0.8108063 -0.03459685
v 0.2345968 0.86 -0.03459685
v -0.06271269 0 -0.06271269
v 0.06271269 0 -0.06271269
v -0.06271269 0.2 -0.06271269
v 0.06271269 0.2 -0.06271269
v 0.06271269 0.2 0.06271269
v 0.06271269 0 0.06271269
v -0.06271269 0 0.06271269
v -0.06271269 0.2 0.06271269
v 0.05518717 0.24 0.05518717
v -0.05518717 0.24 0.05518717
v -0.05518717 0.24 -0.05518717
v 0.05518717 0.24 -0.05518717
v 0.03459685 0.24 -0.03459685
v -0.03459685 0.24 -0.03459685
v -0.03459685 0.24 0.03459685
v 0.03459685 0.24 0.03459685
v 0.3146642 0.6356063 -0.05200042
v 0.3146642 0.6356063 0.05200042
v 0.1345295 0.6356063 -0.05200042
v 0.1345295 0.6356063 0.05200042
v 0.2245968 0.6356063 -0.1040008
v 0.2245968 0.6356063 0.1040008
v 0.06459685 0.8799999 -0.03459685
v 0.06459685 0.8799999 0.03459685
v 0.06459685 0.7908063 -0.05459685
v 0.03459685 0.7908063 0.03459685
v 0.06459685 0.7908063 0.05459685
v -0.05459685 0.7908063 0.05459685
v -0.03459685 0.7908063 0.03459685
v -0.03459685 0.7908063 -0.03459685
v 0.03459685 0.7908063 -0.03459685
v -0.05459685 0.7908063 -0.05459685
v -0.05459685 0.9 -0.05459685
v -0.05459685 0.9 0.05459685
v 0.06459685 0.9 -0.05459685
v 0.06459685 0.9 0.05459685
v 0.06459685 0.8108063 0.03459685
v 0.06459685 0.8108063 -0.03459685
vn 1 0 0
vn -1 0 0
vn -0.5 0 0.8660254
vn 0.5000001 0 0.8660254
vn 0.5000001 0 -0.8660253
vn -0.5 0 -0.8660254
vn 0 1 0
vn 0.5000001 0 -0.8660254
vn 0 -1 0
vn 0.5000001 0 0.8660253
vn 0 0 1
vn 0 0 -1
vn 0 0.06186891 -0.9980843
vn 0 0.1237378 -0.992315
vn 0.9956802 0.09284819 0
vn 0 0.06186891 0.9980843
vn 0 0.1237378 0.992315
vn 0 0.1848942 0.9827585
vn 0 0.1848942 0.9827585
vn 0 0.1848942 -0.9827585
vn 0 0.1848942 -0.9827585
vn 0.9827585 0.1848942 0
vn 0.9827585 0.1848942 0
vn -0.9980843 0.06186891 0
vn -0.9827585 0.1848942 0
vn -0.992315 0.1237378 0
vn -0.9827585 0.1848942 0
vn 0.7071059 0.7071076 0
vn 0.9867374 -0.1623249 0
vn -0.9867374 -0.1623248 0
vn -0.9867374 -0.1623248 0
vn 0.49925 -0.05475329 -0.8647263
vn 0.49925 0.05475327 -0.8647263
vn 0.4933687 0.1623248 -0.8545396
vn 0.4933687 0.1623248 -0.8545396
vn 0.4933687 -0.1623248 0.8545396
vn 0.4933687 -0.1623248 0.8545396
vn 0.49925 -0.05475327 0.8647263
vn 0.49925 0.05475329 0.8647263
vn -0.4933686 -0.1623248 0.8545396
vn -0.4992499 -0.05475327 0.8647263
vn -0.4992499 0.05475327 0.8647263
vn 0.4933687 0.1623248 0.8545396
vn 0.4933687 0.1623248 0.8545396
vn -0.4933686 0.1623248 0.8545396
vn -0.4933686 0.1623248 0.8545396
vn -0.4992499 -0.05475327 -0.8647263
vn -0.4992499 0.05475327 -0.8647263
vn -0.4933686 0.1623248 -0.8545396
vn 0.4933687 -0.1623248 -0.8545396
vn 0.4933687 -0.1623248 -0.8545396
vn -0.4933686 -0.1623248 -0.8545396
vn -0.4933686 -0.1623248 -0.8545396
vn 0.9867374 0.1623249 0
vn -0.9867374 0.1623248 0
vn -0.9867374 0.1623248 0
vt 0.05475 0.7816063
vt 0.05475 0.7451063
vt -0.05475 0.7816063
vt -0.05475 0.7451063
vt -0.0291071 0.7816063
vt -0.0291071 0.8108063
vt 0.0291071 0.7816063
vt 0.0291071 0.8108063
vt 0.2245968 0.7451063
vt 0.1297671 0.7451063
vt 0.2245968 0.7816063
vt 0.1297671 0.7816063
vt 0.3194266 0.7451063
vt 0.3194266 0.7816063
vt -0.2245968 0.7816063
vt -0.2750118 0.7816063
vt -0.2245968 0.8108063
vt -0.2750118 0.8108063
vt 0.05475 0.5261063
vt 0.05475 0.4896063
vt -0.05475 0.5261063
vt -0.05475 0.4896063
vt -0.1297671 0.4896063
vt -0.2245968 0.4896063
vt -0.1297671 0.5261063
vt -0.2245968 0.5261063
vt -0.3194266 0.05475
vt -0.2966507 -0.04160034
vt -0.3194266 -0.05475
vt -0.2245968 -0.1095
vt -0.2245968 -0.08320068
vt -0.1297671 -0.05475
vt -0.1525429 -0.04160034
vt -0.1525429 0.04160034
vt -0.2966507 0.04160034
vt -0.2245968 0.1095
vt -0.2245968 0.08320068
vt -0.1297671 0.05475
vt -0.2245968 0.7451063
vt -0.3194266 0.7451063
vt -0.3194266 0.7816063
vt 0.2245968 0.4896063
vt 0.1297671 0.4896063
vt 0.2245968 0.5261063
vt 0.1297671 0.5261063
vt 0.3194266 0.4896063
vt 0.3194266 0.5261063
vt 0.2750118 0.7816063
vt 0.2750118 0.8108063
vt 0.2245968 0.8108063
vt -0.3194266 0.4896063
vt -0.3194266 0.5261063
vt -0.2750118 -0.0291071
vt -0.2245968 -0.0582142
vt -0.1741819 -0.0291071
vt -0.1741819 0.0291071
vt -0.2750118 0.0291071
vt -0.2245968 0.0582142
vt 0.1741819 0.7816063
vt 0.1741819 0.8108063
vt 0.1836904 0.8108063
vt -0.1297671 0.7451063
vt -0.1297671 0.7816063
vt -0.1741819 0.7816063
vt -0.1741819 0.8108063
vt 0.2345968 0.8108063
vt 0.1945968 0.8108063
vt 0.2345968 0.86
vt 0.1945968 0.8799999
vt 0.2145969 0.8799999
vt -0.2145969 -0.03459685
vt -0.2145969 0.03459685
vt -0.1945968 -0.03459685
vt -0.1945968 0.03459685
vt -0.1945968 0.8108063
vt -0.2345968 0.8108063
vt -0.1945968 0.8799999
vt -0.2345968 0.86
vt -0.2145969 0.8799999
vt 0.03459685 0.86
vt 0.03459685 0.8108063
vt -0.03459685 0.86
vt -0.03459685 0.8108063
vt 0.06271269 0
vt -0.06271269 0
vt 0.06271269 0.2
vt -0.06271269 0.2
vt 0.05518717 0.24
vt -0.05518717 0.24
vt -0.05518717 0.05518717
vt -0.03459685 -0.03459685
vt -0.05518717 -0.05518717
vt 0.05518717 -0.05518717
vt 0.03459685 -0.03459685
vt 0.03459685 0.03459685
vt -0.03459685 0.03459685
vt 0.05518717 0.05518717
vt -0.06271269 -0.06271269
vt -0.06271269 0.06271269
vt 0.06271269 -0.06271269
vt 0.06271269 0.06271269
vt -0.2345968 -0.03459685
vt -0.2345968 0.03459685
vt -0.1836904 -0.03459685
vt -0.1836904 0.03459685
vt 0.05200042 0.6356063
vt 0.04160034 0.5261063
vt -0.05200042 0.6356063
vt -0.04160034 0.5261063
vt -0.2245968 0.6356063
vt -0.3146642 0.6356063
vt -0.2966507 0.7451063
vt 0.2966507 0.5261063
vt 0.3146642 0.6356063
vt 0.2245968 0.6356063
vt 0.1525429 0.5261063
vt 0.1345295 0.6356063
vt 0.2966507 0.7451063
vt 0.1525429 0.7451063
vt -0.1345295 0.6356063
vt -0.1525429 0.7451063
vt -0.2966507 0.5261063
vt -0.1525429 0.5261063
vt 0.04160034 0.7451063
vt -0.04160034 0.7451063
vt -0.06459685 -0.03459685
vt -0.06459685 0.03459685
vt -0.06459685 0.05459685
vt -0.06459685 -0.05459685
vt 0.05459685 -0.05459685
vt 0.05459685 0.05459685
vt -0.05459685 0.7908063
vt -0.05459685 0.9
vt 0.05459685 0.7908063
vt 0.05459685 0.9
vt 0.03459685 0.8799999
vt -0.03459685 0.8799999
vt 0.06459685 0.8108063
vt 0.06459685 0.8799999
vt 0.03459685 0.7908063
vt 0.03459685 0.24
vt -0.03459685 0.7908063
vt -0.03459685 0.24
vt 0.06459685 0.7908063
vt 0.06459685 0.9
vt -0.06459685 0.7908063
vt -0.06459685 0.9
vt -0.06459685 0.8108063
vt -0.1836904 0.8108063
vt -0.06459685 0.8799999

usemtl darkStone (Instance)
usemap darkStone (Instance)
f 3/3/1 2/2/1 1/1/1
f 2/2/1 3/3/1 4/4/1
f 7/7/2 6/6/2 5/5/2
f 6/6/2 7/7/2 8/8/2
f 11/11/3 10/10/3 9/9/3
f 10/10/3 11/11/3 12/12/3
f 15/6/1 14/7/1 13/8/1
f 14/7/1 15/6/1 16/5/1
f 3/14/4 9/9/4 4/13/4
f 9/9/4 3/14/4 11/11/4
f 18/17/5 14/16/5 17/15/5
f 14/16/5 18/17/5 13/18/5
f 21/21/1 20/20/1 19/19/1
f 20/20/1 21/21/1 22/22/1
f 25/25/6 24/24/6 23/23/6
f 24/24/6 25/25/6 26/26/6
f 27/20/2 25/21/2 23/22/2
f 25/21/2 27/20/2 28/19/2
f 19/29/7 29/28/7 21/27/7
f 29/28/7 19/29/7 26/30/7
f 29/28/7 26/30/7 30/31/7
f 30/31/7 26/30/7 25/32/7
f 30/31/7 25/32/7 31/33/7
f 31/33/7 25/32/7 32/34/7
f 33/35/7 21/27/7 29/28/7
f 21/27/7 33/35/7 34/36/7
f 34/36/7 33/35/7 35/37/7
f 34/36/7 35/37/7 32/34/7
f 34/36/7 32/34/7 28/38/7
f 28/38/7 32/34/7 25/32/7
f 37/15/8 2/40/8 36/39/8
f 2/40/8 37/15/8 1/41/8
f 38/30/9 20/27/9 22/29/9
f 20/27/9 38/30/9 24/36/9
f 24/36/9 38/30/9 27/32/9
f 24/36/9 27/32/9 23/38/9
f 34/44/3 27/43/3 38/42/3
f 27/43/3 34/44/3 28/45/3
f 21/47/4 38/42/4 22/46/4
f 38/42/4 21/47/4 34/44/4
f 15/49/10 39/11/10 16/48/10
f 39/11/10 15/49/10 40/50/10
f 26/26/8 20/51/8 24/24/8
f 20/51/8 26/26/8 19/52/8
f 1/29/7 14/53/7 3/27/7
f 14/53/7 1/29/7 37/30/7
f 14/53/7 37/30/7 17/54/7
f 17/54/7 37/30/7 41/32/7
f 17/54/7 41/32/7 5/55/7
f 5/55/7 41/32/7 7/56/7
f 16/57/7 3/27/7 14/53/7
f 3/27/7 16/57/7 11/36/7
f 11/36/7 16/57/7 39/58/7
f 11/36/7 39/58/7 7/56/7
f 11/36/7 7/56/7 12/38/7
f 12/38/7 7/56/7 41/32/7
f 40/50/3 7/59/3 39/11/3
f 7/59/3 40/50/3 8/60/3
f 8/60/7 40/50/7 42/61/7
f 41/63/6 36/39/6 43/62/6
f 36/39/6 41/63/6 37/15/6
f 4/29/9 44/28/9 2/27/9
f 44/28/9 4/29/9 9/30/9
f 44/28/9 9/30/9 45/31/9
f 45/31/9 9/30/9 46/33/9
f 46/33/9 9/30/9 10/32/9
f 46/33/9 10/32/9 47/34/9
f 48/35/9 2/27/9 44/28/9
f 2/27/9 48/35/9 36/36/9
f 36/36/9 48/35/9 49/37/9
f 36/36/9 49/37/9 47/34/9
f 36/36/9 47/34/9 43/38/9
f 43/38/9 47/34/9 10/32/9
f 6/65/6 17/15/6 5/64/6
f 17/15/6 6/65/6 18/17/6
f 18/50/7 6/60/7 50/61/7
f 10/2/2 41/3/2 43/4/2
f 41/3/2 10/2/2 12/1/2
f 53/68/11 52/67/11 51/66/11
f 52/67/11 53/68/11 54/69/11
f 54/69/11 53/68/11 55/70/11
f 57/73/7 55/72/7 56/71/7
f 55/72/7 57/73/7 54/74/7
f 57/77/12 59/76/12 58/75/12
f 59/76/12 57/77/12 60/78/12
f 60/78/12 57/77/12 56/79/12
f 53/82/1 59/81/1 60/80/1
f 59/81/1 53/82/1 51/83/1
f 63/86/13 62/85/12 61/84/12
f 62/85/12 63/86/13 64/87/14
f 65/87/15 62/84/1 64/86/15
f 62/84/1 65/87/15 66/85/1
f 65/86/16 67/85/11 66/84/11
f 67/85/11 65/86/16 68/87/17
f 69/88/18 68/87/17 65/86/16
f 68/87/17 69/88/18 70/89/19
f 71/88/20 64/87/14 63/86/13
f 64/87/14 71/88/20 72/89/21
f 72/92/7 73/91/7 69/90/7
f 73/91/7 72/92/7 71/93/7
f 73/91/7 71/93/7 74/94/7
f 74/94/7 71/93/7 75/95/7
f 76/96/7 69/90/7 73/91/7
f 69/90/7 76/96/7 70/97/7
f 70/97/7 76/96/7 75/95/7
f 70/97/7 75/95/7 71/93/7
f 72/88/22 65/87/15 64/86/15
f 65/87/15 72/88/22 69/89/23
f 67/100/9 62/99/9 66/98/9
f 62/99/9 67/100/9 61/101/9
f 68/86/26 71/89/25 63/87/24
f 71/89/25 68/86/26 70/88/27
f 67/84/2 63/87/24 61/85/2
f 63/87/24 67/84/2 68/86/26
f 55/72/28 60/102/28 56/71/28
f 60/102/28 55/72/28 53/103/28
f 18/54/7 15/57/7 13/53/7
f 15/57/7 18/54/7 59/102/7
f 59/102/7 18/54/7 58/73/7
f 58/73/7 18/54/7 50/104/7
f 51/103/7 15/57/7 59/102/7
f 15/57/7 51/103/7 40/58/7
f 40/58/7 51/103/7 52/74/7
f 40/58/7 52/74/7 42/105/7

usemtl roof (Instance)
usemap roof (Instance)
f 78/108/1 29/107/29 77/106/1
f 29/107/29 78/108/1 33/109/29
f 31/109/30 80/106/2 79/108/2
f 80/106/2 31/109/30 32/107/31
f 49/39/34 77/111/33 81/110/32
f 77/111/33 49/39/34 48/112/35
f 78/114/38 35/44/37 33/113/36
f 35/44/37 78/114/38 82/115/39
f 82/115/41 32/116/40 35/44/40
f 32/116/40 82/115/41 80/117/42
f 44/118/43 82/115/39 78/114/38
f 82/115/39 44/118/43 45/9/44
f 45/9/45 80/117/42 82/115/41
f 80/117/42 45/9/45 46/119/46
f 47/121/49 81/110/48 79/120/47
f 81/110/48 47/121/49 49/39/49
f 81/110/32 29/122/51 30/26/50
f 29/122/51 81/110/32 77/111/33
f 79/120/47 30/26/53 31/123/52
f 30/26/53 79/120/47 81/110/48
f 48/124/54 78/108/1 77/106/1
f 78/108/1 48/124/54 44/125/54
f 80/106/2 47/125/55 79/108/2
f 47/125/55 80/106/2 46/124/56

usemtl wood (Instance)
usemap wood (Instance)
f 83/126/7 54/74/7 57/73/7
f 54/74/7 83/126/7 84/127/7
f 87/129/9 86/91/9 85/128/9
f 86/91/9 87/129/9 88/130/9
f 86/91/9 88/130/9 89/94/9
f 89/94/9 88/130/9 90/95/9
f 91/96/9 85/128/9 86/91/9
f 85/128/9 91/96/9 92/131/9
f 92/131/9 91/96/9 90/95/9
f 92/131/9 90/95/9 88/130/9
f 88/134/2 93/133/2 92/132/2
f 93/133/2 88/134/2 94/135/2
f 95/135/1 83/136/1 85/134/1
f 83/136/1 95/135/1 96/133/1
f 83/136/1 96/133/1 84/137/1
f 84/137/1 96/133/1 97/83/1
f 98/81/1 85/134/1 83/136/1
f 85/134/1 98/81/1 87/132/1
f 87/132/1 98/81/1 97/83/1
f 87/132/1 97/83/1 96/133/1
f 54/69/11 42/61/11 52/67/11
f 42/61/11 54/69/11 97/138/11
f 97/138/11 54/69/11 84/139/11
f 86/142/1 73/141/1 91/140/1
f 73/141/1 86/142/1 76/143/1
f 96/145/11 88/132/11 87/144/11
f 88/132/11 96/145/11 94/133/11
f 75/141/2 90/142/2 74/143/2
f 90/142/2 75/141/2 89/140/2
f 90/140/12 73/143/12 74/141/12
f 73/143/12 90/140/12 91/142/12
f 93/130/7 96/128/7 95/129/7
f 96/128/7 93/130/7 94/131/7
f 93/135/12 85/146/12 92/134/12
f 85/146/12 93/135/12 95/147/12
f 83/150/12 50/149/12 98/148/12
f 50/149/12 83/150/12 58/75/12
f 58/75/12 83/150/12 57/77/12
f 86/140/11 75/143/11 76/141/11
f 75/143/11 86/140/11 89/142/11
f 97/126/9 8/55/9 42/104/9
f 8/55/9 97/126/9 6/56/9
f 98/127/9 6/56/9 97/126/9
f 6/56/9 98/127/9 50/105/9
